<svg height="511pt" viewBox="-10 0 511 511.99998" width="511pt" xmlns="http://www.w3.org/2000/svg"><path d="m17.980469 387.925781c-6.089844-1.019531-12.179688 1.792969-15.351563 7.089844-3.167968 5.296875-2.773437 12 1.003906 16.882813 53.683594 69.421874 140.171876 109.074218 232.328126 98.371093 118.199218-13.730469 215.984374-113.695312 223.996093-237.269531.890625-13.753906 9.996094-26.910156 23.199219-33.53125 4.335938-2.144531 7.375-6.25 8.15625-11.03125.792969-4.847656-.835938-9.773438-4.363281-13.191406l-29.894531-28.988282c-11.03125-38.511718-46.3125-65.246093-86.554688-65.246093-40.777344 0-76.386719 27.398437-86.925781 66.679687-2.433594-5.097656-5.183594-10.054687-8.253907-14.839844-20.105468-31.335937-52.597656-53.394531-89.144531-60.523437-18.621093-3.628906-35.777343-12.398437-49.628906-25.359375l-85.609375-82.753906c-3.796875-3.671875-9.246094-5.074219-14.347656-3.695313-5.101563 1.382813-9.097656 5.34375-10.523438 10.433594l-12.035156 42.929687c-12.390625 41.773438-6.585938 86.824219 15.878906 124.070313-8.476562 40.574219-2.542968 82.960937 16.945313 120.0625 18.648437 35.5 48.433593 63.425781 84.777343 79.828125-24.285156 8.761719-49.804687 13.1875-76.15625 13.1875-12.585937 0-25.199218-1.042969-37.496093-3.105469zm38.140625-177.433593c22.296875 21.082031 50.585937 35.300781 81.4375 40.347656 8.179687 1.339844 15.890625-4.207032 17.226562-12.382813 1.335938-8.175781-4.207031-15.886719-12.382812-17.226562-35.410156-5.792969-66.644532-26.550781-85.699219-56.957031-19.050781-30.402344-24.109375-67.566407-13.882813-101.957032.023438-.074218 5.34375-19.050781 5.34375-19.050781s67.71875 65.457031 67.777344 65.507813c17.984375 16.871093 40.289063 28.285156 64.492188 33.003906 28.546875 5.566406 53.929687 22.796875 69.636718 47.277344 15.710938 24.476562 20.796876 54.730468 13.964844 83.003906l-8.726562 36.09375c-2.277344 9.417968 4.859375 18.53125 14.59375 18.53125 6.765625 0 12.910156-4.613282 14.570312-11.480469 7.375-31.890625 10.5-39.734375 11.953125-55.6875 15.324219-59.570313 14.527344-56.085937 14.738281-57.515625 4.375-29.066406 29.882813-50.988281 59.335938-50.988281 28.125 0 52.167969 19.105469 58.472656 46.457031.648438 2.816406 2.101563 5.386719 4.175782 7.402344l19.855468 19.25c-13.390625 12.214844-21.824218 28.992187-22.988281 46.9375-7.140625 110.320312-93.242187 197.296875-197.515625 209.40625-66.878906 7.769531-131.929688-14.164063-180.183594-59.449219 40.609375.507813 79.964844-8.339844 116.503906-26.496094.984376-.488281 1.886719-1.074219 2.707032-1.734375l20.285156 7.277344c7.832031 2.8125 16.398438-1.289062 19.1875-9.050781 2.796875-7.796875-1.253906-16.386719-9.050781-19.1875l-46.851563-16.816407c-62.082031-22.28125-100.84375-81.199218-98.976562-144.515624zm0 0"/><path d="m385.5 196.015625c0 8.285156-6.714844 15.003906-15 15.003906s-15-6.71875-15-15.003906 6.714844-15 15-15 15 6.714844 15 15zm0 0"/></svg>