<svg fill="#000000" xmlns="http://www.w3.org/2000/svg" data-name="Layer 1" viewBox="0 0 100 100" x="0px" y="0px"><title>Artboard 14</title><path d="M88.34,31.19,85.56,34A40.31,40.31,0,0,1,56.08,98.41q-1.38.09-2.74.09A40.15,40.15,0,0,1,23.41,85.21a2.5,2.5,0,0,1,3.71-3.35A35.32,35.32,0,0,0,80.31,35.39,2.5,2.5,0,0,1,80.45,32l4.36-4.36a1.77,1.77,0,0,0-2.5-2.5l-4.53,4.53a2.5,2.5,0,0,1-3.27.23,35.21,35.21,0,0,0-17.18-6.82A2.5,2.5,0,0,1,55.1,20.6V12.54A2.5,2.5,0,0,1,57.6,10h2.29a1.77,1.77,0,0,0,0-3.54H46.77a1.77,1.77,0,0,0,0,3.54h2.29a2.5,2.5,0,0,1,2.5,2.5V20.6a2.5,2.5,0,0,1-2.22,2.48A35.36,35.36,0,0,0,28.06,33.51,2.5,2.5,0,1,1,24.48,30,40.41,40.41,0,0,1,46.56,18.43V15A6.77,6.77,0,0,1,46.77,1.5H59.89A6.77,6.77,0,0,1,60.1,15v3.39a40.24,40.24,0,0,1,15.63,6.21l3-3a6.77,6.77,0,1,1,9.58,9.57Zm-82,14.18a2.5,2.5,0,0,0,2.5,2.5H26.2a2.5,2.5,0,0,0,0-5H8.85A2.5,2.5,0,0,0,6.35,45.36ZM34.76,57.49a2.5,2.5,0,0,0-2.5-2.5H14.91a2.5,2.5,0,0,0,0,5H32.26A2.5,2.5,0,0,0,34.76,57.49ZM8.85,72.12H26.2a2.5,2.5,0,0,0,0-5H8.85a2.5,2.5,0,0,0,0,5ZM67.2,47.84l-6.41,6.41a8.45,8.45,0,1,1-3.54-3.54l6.41-6.41a2.5,2.5,0,1,1,3.54,3.54ZM56.76,58.18a3.43,3.43,0,1,0-3.43,3.43A3.44,3.44,0,0,0,56.76,58.18ZM53.33,87.93a29.76,29.76,0,1,0-21-50.8,2.5,2.5,0,0,0,3.54,3.54,24.77,24.77,0,1,1,0,35,2.5,2.5,0,0,0-3.54,3.54A29.68,29.68,0,0,0,53.33,87.93Z"/></svg>