<svg xmlns="http://www.w3.org/2000/svg" xmlns:xlink="http://www.w3.org/1999/xlink" version="1.1" x="0px" y="0px" width="100px" height="100px" viewBox="0 0 100 100" enable-background="new 0 0 100 100" xml:space="preserve">
<g id="Captions">
</g>
<g id="Your_Icon">
	<g>
		<path d="M61.461,67.727c-0.17-0.76-0.439-1.5-0.75-2.16c-1.39-0.551-3.039-0.971-4.979-1.121c-4.271-0.33-9.67-2.82-15.14-6.26    c-0.34,0.141-0.66,0.33-0.97,0.541c-0.03,0.02-0.06,0.039-0.09,0.068c-1.36,0.98-2.25,2.48-2.46,4.141    c-0.01,0.051-0.01,0.1-0.02,0.141c-0.11,0.93-0.2,1.799-0.27,2.609c-0.72,8.4,0.75,10.49,2.48,11.98    c1.26,1.09,2.84,1.66,4.59,1.66c2.41,0,5.01-1.23,7.09-2.52c6.73-0.891,8.42-2.5,9.471-3.971c0.1-0.141,0.189-0.279,0.279-0.42    C61.541,71.016,61.821,69.326,61.461,67.727z M48.812,71.006c0,0-3.29,2.32-4.96,2.32c-0.27,0-0.5-0.061-0.67-0.201    c-0.75-0.648-0.62-4.199-0.42-6.76c0.13-1.529,0.27-2.699,0.27-2.699l11.26,2.74c0,0,1.041,1.439,1.32,2.65    c0.1,0.459-0.84,0.85-2.05,1.16C51.551,70.727,48.812,71.006,48.812,71.006z"/>
	</g>
	<g>
		<path d="M39.531,58.795c-0.03-0.469-0.1-0.939-0.21-1.43c-3.81-2.49-7.63-5.41-11.09-8.33c-0.35,0-0.7,0.051-1.04,0.131    c-1.65,0.379-3.06,1.43-3.9,2.9c-0.08,0.139-0.16,0.289-0.24,0.43c-4.93,8.869-5.43,14.299-1.61,17.6    c1.29,1.109,2.96,1.721,4.7,1.721c3.12,0,6.69-2.061,10.64-6.131c0.24-0.25,0.48-0.5,0.72-0.76c0.05-0.051,0.09-0.1,0.13-0.15    c0.24-0.27,0.46-0.58,0.67-0.92C39.122,62.557,39.692,60.795,39.531,58.795z M33.091,60.855c0,0-4.59,4.961-6.95,4.961    c-0.3,0-0.56-0.08-0.78-0.26c-1.41-1.23,1.08-6.561,2.41-9.141c0.44-0.85,0.75-1.4,0.75-1.4l4.86,3.4c0.35,1,0.1,1.76-0.1,2.141    C33.182,60.756,33.091,60.855,33.091,60.855z"/>
	</g>
	<g>
		<path d="M69.762,31.166c0.5-1.48,2.039-5.99-1.641-9.16c-0.91-0.779-2.479-1.711-4.83-1.711c-3.629,0-8.109,2.471-9.869,3.541    c-0.59,0.359-1.45,0.449-1.881,0.459c-0.209-0.029-0.43-0.039-0.649-0.039c-0.12,0-0.24,0-0.36,0.01    c-2.03,0.131-3.82,1.32-4.82,3.18c-0.06,0.121-0.12,0.24-0.17,0.361c5.839,5.279,10.701,11.389,14.72,17.01    c2.18-0.01,3.18-0.15,3.74-0.25c0.85-0.16,1.779-0.531,2.619-1.141c1.43-1.029,2.631-2.74,2.86-5.279    c0.101-1.09,0.021-2.191-0.069-3.25c-0.061-0.791-0.121-1.602-0.091-2.16C69.352,32.365,69.562,31.727,69.762,31.166z     M62.892,38.666c-0.729,0.141-2.17,0.16-3.19,0.16c-0.67,0-1.17-0.01-1.17-0.01l-7.39-8.541c0,0,0.14,0.02,0.39,0.02    c0.74,0,2.41-0.1,4.1-0.859c0.301-0.129,0.601-0.289,0.9-0.469c2.06-1.25,5.11-2.672,6.76-2.672c0.391,0,0.701,0.07,0.91,0.25    c1.07,0.932-0.689,3.07-0.869,5.82c-0.15,2.551,0.649,5.59-0.211,6.201C63.062,38.615,62.982,38.646,62.892,38.666z"/>
	</g>
	<g>
		<g>
			<path d="M93.551,60.125c-4.549-3.08-13.379-3.959-18.34-4.199c-1.239-1.6-2.939-4.141-4.6-6.619     c-1.22-1.82-2.55-3.801-3.99-5.881c-1.1-1.57-2.26-3.199-3.5-4.859c-2.24-3.021-4.729-6.111-7.49-9.131     c-1.6-1.77-3.299-3.51-5.1-5.17c-0.73-0.699-1.48-1.379-2.25-2.039c-14.03-12.121-28.01-13.932-35.09-13.932     c-2.06,0-3.99,0.141-5.74,0.432c-2.68,0.449-4.73,2.648-4.99,5.35c-0.74,7.76,3.1,15.98,6.45,21.5     c3.79,6.23,8.93,12.391,14.14,16.92c0.06,0.049,0.11,0.1,0.17,0.15c1.57,1.359,3.09,2.609,4.55,3.77     c1.93,1.539,3.77,2.91,5.51,4.141c1.31,0.92,2.57,1.76,3.77,2.52c0.43,0.27,0.84,0.529,1.25,0.779     c1.59,0.961,3.07,1.791,4.46,2.51c4.7,2.391,8.279,3.43,10.8,3.852c0.64,0.109,1.21,0.17,1.71,0.209     c2.721,0.211,4.45,1.211,5.42,1.99c0.189,0.15,0.34,0.289,0.471,0.42c0.539,2.4,1.699,7.59,2.629,12.01     c1.311,6.189,5.42,6.859,7.121,6.859c4.08,0,6.289-3.199,9.09-7.26c1.439-2.09,3.229-4.68,5.379-7.17     c2.641-3.049,5.07-3.85,6.681-4.369c4.94-1.621,5.351-4.51,5.5-5.611C98.142,63.236,94.922,61.057,93.551,60.125z M80.842,73.355     c-5.32,6.15-8.26,12.35-9.93,12.35c-0.531,0-0.94-0.629-1.25-2.1c-1.281-6.061-2.961-13.449-2.961-13.449s-1.75-2.91-5.99-4.59     c-1.39-0.551-3.039-0.971-4.979-1.121c-4.271-0.33-9.67-2.82-15.14-6.26c-0.43-0.27-0.85-0.539-1.27-0.82     c-3.81-2.49-7.63-5.41-11.09-8.33c-0.36-0.309-0.72-0.619-1.08-0.93c-8.99-7.76-19.73-22.82-18.72-33.459     c1.26-0.211,2.87-0.352,4.76-0.352c7.52,0,19.44,2.342,31.17,12.471c0.4,0.34,0.79,0.689,1.18,1.041     c5.839,5.279,10.701,11.389,14.72,17.01c5.57,7.809,9.529,14.67,12.25,17.02c0,0,13.18,0.209,17.67,3.26     C94.682,68.137,87.852,65.236,80.842,73.355z"/>
		</g>
	</g>
</g>
</svg>
