<?xml version="1.0" encoding="UTF-8" standalone="no"?>
<svg xmlns:dc="http://purl.org/dc/elements/1.1/" xmlns:cc="http://creativecommons.org/ns#" xmlns:rdf="http://www.w3.org/1999/02/22-rdf-syntax-ns#" xmlns:svg="http://www.w3.org/2000/svg" xmlns="http://www.w3.org/2000/svg" id="svg8" version="1.1" viewBox="0 0 258.3737 193.5022" height="193.5022" width="258.3737">
  <defs id="defs2"/>
  <metadata id="metadata">
    <rdf:RDF>
      <cc:Work rdf:about="">
        <dc:format>image/svg+xml</dc:format>
        <dc:type rdf:resource="http://purl.org/dc/dcmitype/StillImage"/>
        <dc:title/>
        <dc:creator>
          <cc:Agent>
            <dc:title>Krzysztof Blachnicki (krzysiu.net)</dc:title>
          </cc:Agent>
        </dc:creator>
        <dc:publisher>
          <cc:Agent>
            <dc:title>krzysiu.net</dc:title>
          </cc:Agent>
        </dc:publisher>
        <dc:rights>
          <cc:Agent>
            <dc:title>Krzysztof Blachnicki (krzysiu.net)</dc:title>
          </cc:Agent>
        </dc:rights>
        <dc:contributor>
          <cc:Agent>
            <dc:title>Krzysztof Blachnicki (krzysiu.net)</dc:title>
          </cc:Agent>
        </dc:contributor>
        <dc:language>en</dc:language>
        <cc:license rdf:resource="http://creativecommons.org/licenses/by/4.0/"/>
        <dc:source>own work</dc:source>
      </cc:Work>
      <cc:License rdf:about="http://creativecommons.org/licenses/by/4.0/">
        <cc:permits rdf:resource="http://creativecommons.org/ns#Reproduction"/>
        <cc:permits rdf:resource="http://creativecommons.org/ns#Distribution"/>
        <cc:requires rdf:resource="http://creativecommons.org/ns#Notice"/>
        <cc:requires rdf:resource="http://creativecommons.org/ns#Attribution"/>
        <cc:permits rdf:resource="http://creativecommons.org/ns#DerivativeWorks"/>
      </cc:License>
    </rdf:RDF>
  </metadata>
  <g transform="translate(-940.813,-463.2485)" id="background">
    <path d="m 949.8567,486.8338 c 29.7378,-9.508 58.2213,-15.9107 84.0673,-18.5853 l 76.758,134.1122 c -11.889,16.3484 -26.516,32.9424 -40.655,49.3903 -14.331,-16.5939 -29.102,-33.3779 -41.067,-49.9035 l 77.764,-133.532 c 25.65,2.7106 53.87,9.0742 83.322,18.484 m -174.967,152.3062 c -6.619,-23.4006 -11.161,-45.8175 -13.304,-66.5398 l 134.114,-76.7599 c 19.298,14.0393 38.943,31.8881 58.249,52.5991 m -248.2763,0.034 c 19.4839,-20.9054 39.3114,-38.893 58.7813,-52.9896 l 133.53,77.7647 c -2.171,20.5667 -6.695,42.7863 -13.253,65.9678 M 969.9727,602.5455 c 6.1798,-25.3707 13.8435,-48.6546 22.9019,-68.9135 l 154.5254,0.5802 v 0 c 8.934,20.0975 16.502,43.1423 22.616,68.2265" style="color:#000000;clip-rule:nonzero;display:inline;overflow:visible;visibility:visible;opacity:1;isolation:auto;mix-blend-mode:normal;color-interpolation:sRGB;color-interpolation-filters:linearRGB;solid-color:#000000;solid-opacity:1;fill:none;fill-opacity:1;fill-rule:nonzero;stroke:#000000;stroke-width:10;stroke-linecap:round;stroke-linejoin:round;stroke-miterlimit:4;stroke-dasharray:none;stroke-dashoffset:0;stroke-opacity:1;paint-order:normal;color-rendering:auto;image-rendering:auto;shape-rendering:auto;text-rendering:auto;enable-background:accumulate" id="path891"/>
  </g>
</svg>