<?xml version="1.0" encoding="UTF-8" standalone="no"?>
<!-- Created with Inkscape (http://www.inkscape.org/) -->
<svg xmlns:inkscape="http://www.inkscape.org/namespaces/inkscape" xmlns:rdf="http://www.w3.org/1999/02/22-rdf-syntax-ns#" xmlns="http://www.w3.org/2000/svg" xmlns:sodipodi="http://sodipodi.sourceforge.net/DTD/sodipodi-0.dtd" xmlns:cc="http://creativecommons.org/ns#" xmlns:xlink="http://www.w3.org/1999/xlink" xmlns:dc="http://purl.org/dc/elements/1.1/" xmlns:svg="http://www.w3.org/2000/svg" xmlns:ns1="http://sozi.baierouge.fr" id="svg2" sodipodi:docname="wing.svg" viewBox="0 0 744.09 1052.4" version="1.1" inkscape:version="0.47 r22583">
  <sodipodi:namedview id="base" bordercolor="#666666" inkscape:pageshadow="2" inkscape:window-y="24" pagecolor="#ffffff" inkscape:window-height="717" inkscape:window-maximized="1" inkscape:zoom="0.49497475" inkscape:window-x="0" showgrid="false" borderopacity="1.0" inkscape:current-layer="layer1" inkscape:cx="420.01193" inkscape:cy="582.52858" inkscape:window-width="1024" inkscape:pageopacity="0.0" inkscape:document-units="px"/>
  <g id="layer1" inkscape:label="Layer 1" inkscape:groupmode="layer">
    <path id="path2836" style="block-progression:tb;text-indent:0;color:#000000;text-transform:none;fill:#000000" d="m656.24 98.391c-122.56 18.699-243.74 46.849-367.44 57.639-50.668 5.3663-106.14 8.3063-147.68 41.358-21.035 17.364-33.7 52.02-13.825 74.887 22.156 25.186 57.823 28.123 87.85 38.295 21.996 5.7248 44.841 11.171 63.641 24.595-0.68643 23.749 37.04 12.023 13.082-5.2643-23.245-25.716-60.363-26.844-91.012-38.238-23.741-6.5755-52.034-11.688-66.539-33.701-10.576-25.689 11.583-51.413 33.708-61.876 52.034-25.371 111.43-23.035 167.51-31.013 105.24-12.3 208.96-34.458 313.4-51.9-15.191 36.692-57.308 48.921-93.03 55.034-50.248 10.837-101.49 17.258-152.89 18.433-4.4865 26.026 36.881 8.5958 52.405 11.139 35.231-3.1272 70.15-9.0515 104.8-16.043-46.109 34.298-105.68 37.541-160.18 48.072-16.755 5.3026-42.23-0.52212-53.677 9.2022 7.8092 21.32 39.656 2.3692 57.467 4.5094 25.251-3.5968 50.193-9.0084 75.356-13.131-20.624 31.897-58.484 46.595-93.499 56.667-18.922 4.7019-38.431 6.9642-57.923 6.9547-6.6658 25.82 35.694 9.9308 50.134 9.0908 47.248-9.1699 94.433-32.655 121.17-74.068 22.826-17.307 56.989-15.288 73.228-42.347 23.299-18.574 56.731-20.923 75.672-45.725 7.0561-8.7654 27.701-36.994 8.2762-42.569z"/>
  </g>
  <metadata>
    <rdf:RDF>
      <cc:Work>
        <dc:format>image/svg+xml</dc:format>
        <dc:type rdf:resource="http://purl.org/dc/dcmitype/StillImage"/>
        <cc:license rdf:resource="http://creativecommons.org/licenses/publicdomain/"/>
        <dc:publisher>
          <cc:Agent rdf:about="http://openclipart.org/">
            <dc:title>Openclipart</dc:title>
          </cc:Agent>
        </dc:publisher>
        <dc:title>wing</dc:title>
        <dc:date>2010-06-11T18:57:04</dc:date>
        <dc:description>simple wing</dc:description>
        <dc:source>https://openclipart.org/detail/65851/wing-by-elpedro</dc:source>
        <dc:creator>
          <cc:Agent>
            <dc:title>elpedro</dc:title>
          </cc:Agent>
        </dc:creator>
        <dc:subject>
          <rdf:Bag>
            <rdf:li>simple wing</rdf:li>
          </rdf:Bag>
        </dc:subject>
      </cc:Work>
      <cc:License rdf:about="http://creativecommons.org/licenses/publicdomain/">
        <cc:permits rdf:resource="http://creativecommons.org/ns#Reproduction"/>
        <cc:permits rdf:resource="http://creativecommons.org/ns#Distribution"/>
        <cc:permits rdf:resource="http://creativecommons.org/ns#DerivativeWorks"/>
      </cc:License>
    </rdf:RDF>
  </metadata>
</svg>